<svg width="1920" height="1915" viewBox="0 0 1920 1915" fill="none" xmlns="http://www.w3.org/2000/svg">
<g opacity="0.1">
<mask id="mask0_1393_2983" style="mask-type:luminance" maskUnits="userSpaceOnUse" x="116" y="85" width="1804" height="1831">
<path fill-rule="evenodd" clip-rule="evenodd" d="M116.263 85.1826H1920V1915.01H116.263V85.1826Z" fill="white"/>
</mask>
<g mask="url(#mask0_1393_2983)">
<path fill-rule="evenodd" clip-rule="evenodd" d="M1916.71 846.107C1917.28 833.056 1911.31 820.805 1900.76 813.343L885.82 95.3038C877.642 89.5132 867.725 87.303 857.902 89.075C848.084 90.8528 839.531 96.3987 833.832 104.701L126.227 1134.11C122.169 1140.01 119.859 1146.92 119.551 1154.08C118.991 1167.13 124.958 1179.38 135.505 1186.85L1150.44 1904.89C1158.63 1910.68 1168.53 1912.89 1178.36 1911.12C1188.18 1909.33 1196.73 1903.8 1202.43 1895.49L1910.03 866.09C1914.1 860.183 1916.41 853.269 1916.71 846.107M116.303 1153.94C116.64 1146.15 119.153 1138.64 123.566 1132.22L831.162 102.815C837.364 93.794 846.658 87.7632 857.335 85.831C868.011 83.9033 878.786 86.3072 887.681 92.5986L1902.62 810.641C1914.09 818.757 1920.57 832.068 1919.96 846.255C1919.62 854.042 1917.11 861.55 1912.7 867.976L1205.1 1897.38C1198.9 1906.4 1189.61 1912.42 1178.93 1914.36C1168.26 1916.29 1157.48 1913.88 1148.58 1907.59L133.651 1189.55C122.182 1181.44 115.693 1168.12 116.303 1153.94" fill="#FFD700"/>
</g>
<path fill-rule="evenodd" clip-rule="evenodd" d="M1869.56 835.725C1870.11 823.204 1864.44 811.379 1854.41 804.091L873.914 91.4624C866.022 85.7199 856.395 83.4427 846.811 85.0458C837.225 86.6517 828.835 91.9472 823.177 99.9553L120.904 1094.42C116.784 1100.26 114.442 1107.12 114.136 1114.26C113.598 1126.78 119.263 1138.61 129.296 1145.89L1109.79 1858.53C1126.1 1870.37 1148.85 1866.56 1160.52 1850.03L1862.79 855.563C1866.92 849.726 1869.26 842.862 1869.56 835.725M110.892 1114.11C111.223 1106.34 113.775 1098.86 118.266 1092.5L820.54 98.0389C826.699 89.313 835.843 83.5472 846.28 81.7971C856.718 80.0499 867.204 82.5309 875.806 88.7815L1856.3 801.415C1867.23 809.353 1873.4 822.23 1872.81 835.867C1872.47 843.647 1869.93 851.125 1865.44 857.482L1163.16 1851.94C1150.45 1869.95 1125.65 1874.11 1107.9 1861.2L127.402 1148.57C116.479 1140.63 110.304 1127.75 110.892 1114.11" fill="#FFD700"/>
<path fill-rule="evenodd" clip-rule="evenodd" d="M1822.42 825.337C1822.94 813.35 1817.56 801.945 1808.06 794.835L862.008 87.6167C846.299 75.874 824.103 79.2825 812.527 95.2142L115.585 1054.74C111.396 1060.5 109.02 1067.32 108.714 1074.44C108.198 1086.43 113.569 1097.83 123.08 1104.93L1069.12 1812.16C1076.74 1817.85 1086.08 1820.19 1095.42 1818.75C1104.77 1817.32 1113.01 1812.28 1118.61 1804.56L1815.56 845.03C1819.74 839.271 1822.12 832.46 1822.42 825.337M105.47 1074.29C105.805 1066.51 108.395 1059.08 112.967 1052.79L809.913 93.2601C822.55 75.8637 846.783 72.1436 863.932 84.9637L1809.98 792.182C1820.37 799.949 1826.23 812.399 1825.67 825.484C1825.34 833.261 1822.75 840.695 1818.17 846.988L1121.23 1806.52C1115.1 1814.94 1106.12 1820.45 1095.91 1822.01C1085.71 1823.58 1075.51 1821.02 1067.21 1814.81L121.155 1107.59C110.774 1099.83 104.908 1087.38 105.47 1074.29" fill="#FFD700"/>
<path fill-rule="evenodd" clip-rule="evenodd" d="M1775.3 814.95C1775.78 803.487 1770.7 792.512 1761.71 785.583L850.1 83.7731C842.772 78.1339 833.725 75.7257 824.615 76.991C815.512 78.2548 807.432 83.0436 801.878 90.4736L110.253 1015.07C106 1020.76 103.588 1027.52 103.283 1034.62C102.791 1046.08 107.867 1057.06 116.865 1063.98L1028.48 1765.79C1043.59 1777.42 1065.23 1774.43 1076.7 1759.1L1768.33 834.504C1772.58 828.816 1774.99 822.056 1775.3 814.95M100.042 1034.47C100.373 1026.7 103.012 1019.29 107.669 1013.07L799.288 88.4818C805.372 80.3515 814.21 75.1128 824.175 73.7252C834.141 72.342 844.043 74.9788 852.062 81.1479L1763.67 782.96C1773.52 790.54 1779.07 802.552 1778.54 815.096C1778.2 822.871 1775.57 830.273 1770.91 836.498L1079.29 1761.09C1066.73 1777.86 1043.06 1781.16 1026.51 1768.42L114.907 1066.61C105.058 1059.02 99.5009 1047.02 100.042 1034.47" fill="#FFD700"/>
<path fill-rule="evenodd" clip-rule="evenodd" d="M1728.16 804.568C1728.63 793.625 1723.84 783.069 1715.35 776.327L838.19 79.9269C831.151 74.3417 822.39 71.8665 813.521 72.9643C804.645 74.0607 796.732 78.5947 791.225 85.7335L104.927 975.389C100.599 980.993 98.1541 987.699 97.8492 994.791C97.3783 1005.73 102.17 1016.29 110.658 1023.03L987.823 1719.43C994.866 1725.02 1003.62 1727.49 1012.49 1726.39C1021.37 1725.3 1029.28 1720.76 1034.79 1713.62L1721.09 823.972C1725.42 818.37 1727.86 811.656 1728.16 804.568M94.6043 994.644C94.9422 986.861 97.6234 979.507 102.369 973.348L788.667 83.7018C794.708 75.8714 803.397 70.8962 813.124 69.695C822.857 68.4909 832.467 71.2034 840.193 77.3347L1717.35 773.734C1726.67 781.127 1731.92 792.708 1731.41 804.71C1731.07 812.491 1728.39 819.854 1723.65 826.007L1037.35 1715.66C1031.31 1723.49 1022.62 1728.47 1012.89 1729.66C1003.16 1730.87 993.543 1728.16 985.827 1722.03L108.656 1025.63C99.3426 1018.23 94.0904 1006.65 94.6043 994.644" fill="#FFD700"/>
<path fill-rule="evenodd" clip-rule="evenodd" d="M1681.05 794.182C1681.49 783.757 1676.99 773.626 1669 767.075L826.278 76.0827C812.338 64.653 791.833 66.8545 780.571 80.9923L99.5937 935.715C95.2004 941.227 92.7081 947.89 92.4032 954.968C91.9537 965.396 96.4601 975.524 104.448 982.076L947.172 1673.06C953.927 1678.61 962.4 1681.14 971.028 1680.22C979.665 1679.28 987.426 1675 992.878 1668.16L1673.86 813.442C1678.26 807.921 1680.75 801.258 1681.05 794.182M89.1612 954.825C89.4933 947.038 92.2318 939.714 97.0717 933.64L778.043 78.9218C790.43 63.3717 812.984 60.9489 828.318 73.5186L1671.05 764.514C1679.83 771.713 1684.78 782.86 1684.29 794.325C1683.96 802.108 1681.22 809.435 1676.38 815.515L995.407 1670.22C989.408 1677.76 980.867 1682.47 971.376 1683.49C961.878 1684.51 952.559 1681.72 945.133 1675.63L102.408 984.638C93.6189 977.435 88.6673 966.288 89.1612 954.825" fill="#FFD700"/>
<path fill-rule="evenodd" clip-rule="evenodd" d="M1633.94 783.794C1634.37 773.74 1630.25 764.269 1622.65 757.817L814.369 72.2333C807.897 66.7514 799.718 64.1466 791.319 64.9067C782.922 65.6653 775.323 69.697 769.918 76.2563L94.2673 896.034C89.7838 901.474 87.2543 908.077 86.9523 915.14C86.5214 925.2 90.6413 934.674 98.2426 941.123L906.526 1626.71C919.879 1638.03 939.815 1636.23 950.974 1622.68L1626.62 802.908C1631.1 797.471 1633.63 790.863 1633.94 783.794M83.711 914.993C84.0416 907.208 86.8317 899.918 91.7732 893.918L767.423 74.1422C773.388 66.9058 781.768 62.4606 791.03 61.6263C800.29 60.7877 809.319 63.6604 816.45 69.7086L1624.73 755.287C1633.12 762.404 1637.66 772.843 1637.18 783.942C1636.85 791.739 1634.06 799.024 1629.11 805.018L953.466 1624.8C941.155 1639.73 919.165 1641.72 904.438 1629.24L96.1579 943.658C87.7679 936.539 83.23 926.094 83.711 914.993" fill="#FFD700"/>
<path fill-rule="evenodd" clip-rule="evenodd" d="M1586.84 773.413C1587.25 763.863 1583.41 754.809 1576.3 748.554L802.457 68.3912C796.276 62.9516 788.378 60.2827 780.214 60.8767C772.055 61.4679 764.615 65.2448 759.255 71.5158L88.94 856.356C84.3677 861.708 81.7939 868.262 81.4904 875.32C81.0795 884.867 84.9246 893.927 92.032 900.179L865.87 1580.35C872.057 1585.78 879.955 1588.45 888.116 1587.86C896.269 1587.27 903.71 1583.49 909.069 1577.22L1579.39 792.376C1583.96 787.029 1586.54 780.47 1586.84 773.413M78.245 875.178C78.58 867.369 81.433 860.117 86.4848 854.202L756.802 69.3596C762.727 62.4217 770.959 58.243 779.984 57.5907C789.011 56.9355 797.747 59.8868 804.583 65.8987L1578.42 746.065C1586.29 752.982 1590.53 763.001 1590.08 773.557C1589.75 781.361 1586.9 788.615 1581.85 794.539L911.522 1579.37C905.603 1586.31 897.369 1590.49 888.346 1591.15C879.32 1591.79 870.582 1588.85 863.75 1582.83L89.9061 902.666C82.0399 895.751 77.7941 885.735 78.245 875.178" fill="#FFD700"/>
<path fill-rule="evenodd" clip-rule="evenodd" d="M1539.75 763.028C1540.14 753.99 1536.56 745.341 1529.94 739.295L790.539 64.5349C784.645 59.1521 777.034 56.4235 769.112 56.8487C761.192 57.2709 753.904 60.7973 748.601 66.7801L83.6054 816.684C79.0088 821.862 76.3147 828.548 76.0155 835.498C75.6305 844.534 79.2064 853.185 85.8271 859.226L825.224 1533.99C831.117 1539.37 838.728 1542.1 846.657 1541.68C854.572 1541.26 861.858 1537.73 867.166 1531.75L1532.16 781.844C1536.76 776.665 1539.45 769.977 1539.75 763.028M72.7705 835.356C73.1054 827.642 76.0901 820.224 81.192 814.483L746.187 64.5768C752.069 57.9433 760.152 54.0266 768.943 53.5563C777.733 53.086 786.174 56.1189 792.716 62.0885L1532.11 736.85C1539.46 743.552 1543.42 753.147 1542.99 763.171C1542.66 770.884 1539.67 778.294 1534.57 784.048L869.578 1533.95C863.696 1540.58 855.614 1544.5 846.825 1544.97C838.039 1545.44 829.593 1542.41 823.053 1536.44L83.6542 861.67C76.3063 854.973 72.3439 845.376 72.7705 835.356" fill="#FFD700"/>
<path fill-rule="evenodd" clip-rule="evenodd" d="M1492.68 752.642C1493.04 744.107 1489.73 735.867 1483.58 730.032L778.629 60.6853C773.016 55.3534 765.688 52.5578 758.008 52.817C750.324 53.0747 743.195 56.3507 737.939 62.0466L78.2721 777.011C73.5796 782.096 70.8311 788.725 70.5319 795.677C70.1669 804.214 73.4794 812.452 79.6163 818.286L784.576 1487.63C796.161 1498.64 814.417 1498.03 825.264 1486.28L1484.94 771.308C1489.63 766.222 1492.38 759.594 1492.68 752.642M67.2866 795.535C67.6215 787.798 70.6807 780.419 75.8985 774.761L735.569 59.7961C741.416 53.4581 749.343 49.8107 757.895 49.5254C766.448 49.24 774.599 52.3471 780.848 58.2818L1485.8 727.631C1492.64 734.12 1496.32 743.288 1495.92 752.787C1495.58 760.521 1492.53 767.897 1487.31 773.562L827.631 1488.53C815.562 1501.61 795.247 1502.28 782.357 1490.04L77.4002 820.689C70.5661 814.201 66.8814 805.027 67.2866 795.535" fill="#FFD700"/>
<path fill-rule="evenodd" clip-rule="evenodd" d="M1445.61 742.256C1445.95 734.222 1442.9 726.387 1437.23 720.771L766.716 56.8284C755.709 45.9331 738.016 46.15 727.277 57.3118L72.9325 737.339C68.137 742.316 65.3283 748.899 65.032 755.847C64.6842 763.891 67.7419 771.72 73.4149 777.337L743.925 1441.28C754.935 1452.17 772.623 1451.95 783.359 1440.8L1437.7 760.772C1442.5 755.788 1445.31 749.21 1445.61 742.256M61.7897 755.699C62.1203 747.942 65.2568 740.599 70.6092 735.034L724.956 55.0067C736.947 42.5476 756.694 42.3074 768.979 54.4738L1439.49 718.412C1445.83 724.682 1449.24 733.427 1448.85 742.403C1448.52 750.165 1445.39 757.511 1440.03 763.074L785.682 1443.1C773.695 1455.56 753.946 1455.8 741.656 1443.63L71.1503 779.69C64.8159 773.422 61.4046 764.677 61.7897 755.699" fill="#FFD700"/>
<path fill-rule="evenodd" clip-rule="evenodd" d="M1398.56 731.873C1398.89 724.322 1396.08 716.902 1390.87 711.511L754.799 52.9751C744.376 42.1875 727.249 42.0084 716.616 52.5747L67.5971 697.661C62.6913 702.54 59.8197 709.06 59.5176 716.027C59.1956 723.576 62.0042 730.996 67.212 736.394L703.274 1394.93C713.701 1405.72 730.825 1405.89 741.463 1395.32L1390.48 750.237C1395.39 745.36 1398.26 738.835 1398.56 731.873M56.2738 715.881C56.6102 708.083 59.8296 700.777 65.3252 695.31L714.341 50.2204C726.256 38.383 745.441 38.5854 757.116 50.6688L1393.19 709.201C1399.03 715.244 1402.17 723.559 1401.8 732.016C1401.47 739.82 1398.25 747.123 1392.75 752.59L743.737 1397.68C731.831 1409.52 712.636 1409.32 700.962 1397.24L64.89 738.704C59.0552 732.658 55.9116 724.337 56.2738 715.881" fill="#FFD700"/>
<path fill-rule="evenodd" clip-rule="evenodd" d="M1351.52 721.49C1351.83 714.317 1349.34 707.478 1344.51 702.232L742.876 49.1176C738.118 43.9458 731.649 40.961 724.677 40.7208C717.7 40.4805 711.049 43.0111 705.95 47.8421L62.261 657.991C57.2292 662.76 54.2961 669.225 53.9954 676.202C53.6877 683.373 56.1756 690.212 61.0055 695.458L662.637 1348.57C672.475 1359.25 689.037 1359.82 699.566 1349.85L1343.26 739.697C1348.29 734.931 1351.22 728.464 1351.52 721.49M50.7503 676.052C51.0881 668.206 54.3849 660.947 60.0351 655.589L703.733 45.4356C709.466 40.0003 716.94 37.1582 724.788 37.4305C732.628 37.6999 739.894 41.053 745.257 46.8683L1346.88 699.986C1352.32 705.883 1355.11 713.572 1354.77 721.634C1354.43 729.479 1351.13 736.75 1345.47 742.104L701.781 1352.26C689.953 1363.47 671.324 1362.83 660.262 1350.83L58.635 697.706C53.2068 691.805 50.401 684.123 50.7503 676.052" fill="#FFD700"/>
<path fill-rule="evenodd" clip-rule="evenodd" d="M1304.5 711.105C1304.79 704.411 1302.53 697.975 1298.15 692.966L730.962 45.2578C721.704 34.6887 705.698 33.7233 695.28 43.1073L56.9114 618.326C51.7537 622.97 48.7489 629.378 48.4497 636.374C48.1634 643.063 50.4195 649.51 54.8056 654.516L621.992 1302.23C631.249 1312.8 647.248 1313.76 657.676 1304.37L1296.04 729.158C1301.2 724.512 1304.21 718.099 1304.5 711.105M45.2032 636.231C45.5439 628.343 48.938 621.106 54.76 615.863L693.124 40.6444C704.88 30.0548 722.943 31.1425 733.39 43.0686L1300.58 690.782C1305.53 696.429 1308.08 703.698 1307.75 711.25C1307.41 719.145 1304.02 726.377 1298.2 731.623L659.83 1306.85C648.07 1317.43 630.008 1316.34 619.559 1304.41L52.3765 656.711C47.4278 651.056 44.8797 643.784 45.2032 636.231" fill="#FFD700"/>
<path fill-rule="evenodd" clip-rule="evenodd" d="M1257.51 700.725C1257.77 694.508 1255.74 688.456 1251.79 683.691L719.044 41.3943C714.845 36.3274 708.946 33.2218 702.446 32.6554C695.939 32.0861 689.605 34.1172 684.612 38.3804L51.5686 578.662C46.3507 583.113 43.1899 589.633 42.8908 596.55C42.6245 602.769 44.6501 608.816 48.6039 613.586L581.349 1255.89C590.022 1266.34 605.472 1267.69 615.782 1258.89L1248.83 718.621C1254.04 714.167 1257.21 707.642 1257.51 700.725M39.6441 596.407C39.9819 588.565 43.5664 581.18 49.4742 576.14L682.519 35.8584C688.182 31.0317 695.352 28.7254 702.722 29.3719C710.091 30.0169 716.769 33.5346 721.529 39.2727L1254.27 681.572C1258.75 686.972 1261.05 693.824 1260.75 700.866C1260.41 708.705 1256.83 716.094 1250.92 721.142L617.871 1261.42C606.191 1271.39 588.689 1269.85 578.865 1258L46.1231 615.701C41.6424 610.303 39.342 603.451 39.6441 596.407" fill="#FFD700"/>
<path fill-rule="evenodd" clip-rule="evenodd" d="M1210.52 690.342C1210.77 684.585 1208.96 678.931 1205.43 674.414L707.123 37.5298C703.199 32.5168 697.588 29.35 691.318 28.6176C685.051 27.8838 678.88 29.6717 673.942 33.6467L46.2185 538.991C40.8546 543.31 37.6079 549.771 37.3073 556.727C37.064 562.475 38.8719 568.13 42.4035 572.653L540.702 1209.54C548.801 1219.89 563.688 1221.63 573.893 1213.42L1201.61 708.082C1206.98 703.762 1210.23 697.293 1210.52 690.342M34.0619 556.579C34.3969 548.674 38.0959 541.325 44.2042 536.408L671.918 31.067C677.54 26.5432 684.56 24.5106 691.69 25.3449C698.82 26.1792 705.205 29.7784 709.668 35.4831L1207.97 672.369C1211.99 677.504 1214.05 683.942 1213.77 690.488C1213.43 698.392 1209.74 705.747 1203.63 710.658L575.904 1216C564.314 1225.34 547.374 1223.36 538.162 1211.59L39.8581 574.706C35.8427 569.559 33.7813 563.123 34.0619 556.579" fill="#FFD700"/>
<path fill-rule="evenodd" clip-rule="evenodd" d="M1163.56 679.966C1163.79 674.664 1162.19 669.399 1159.06 665.135L695.202 33.6592C687.68 23.422 673.352 21.2947 663.255 28.9199L40.8738 499.326C35.3438 503.5 31.9998 509.905 31.7006 516.893C31.4759 522.192 33.0763 527.454 36.2027 531.726L500.067 1163.21C507.586 1173.44 521.915 1175.57 532.004 1167.94L1154.4 697.538C1159.93 693.362 1163.26 686.959 1163.56 679.966M28.4558 516.75C28.798 508.762 32.6201 501.452 38.9316 496.676L661.317 26.2788C672.845 17.5661 689.216 19.9962 697.808 31.6923L1161.67 663.169C1165.24 668.037 1167.07 674.053 1166.81 680.11C1166.47 688.096 1162.65 695.41 1156.34 700.184L533.949 1170.58C522.419 1179.29 506.053 1176.86 497.461 1165.17L33.5993 533.694C30.0248 528.82 28.1967 522.804 28.4558 516.75" fill="#FFD700"/>
<path fill-rule="evenodd" clip-rule="evenodd" d="M1116.63 669.59C1116.84 664.663 1115.48 659.914 1112.7 655.854L683.283 29.7863C676.337 19.6583 662.565 17.1496 652.577 24.1908L35.5125 459.658C29.8165 463.68 26.3752 470.021 26.0731 477.062C25.8641 481.989 27.2241 486.736 30.0069 490.792L459.421 1116.87C466.367 1127 480.138 1129.51 490.127 1122.46L1107.19 686.997C1112.89 682.978 1116.33 676.629 1116.63 669.59M22.8308 476.916C23.1758 468.842 27.1254 461.562 33.6631 456.951L650.722 21.488C662.179 13.4086 677.98 16.2857 685.946 27.9032L1115.37 653.973C1118.56 658.629 1120.12 664.076 1119.87 669.731C1119.53 677.809 1115.58 685.087 1109.05 689.702L491.979 1125.17C480.527 1133.25 464.725 1130.37 456.758 1118.75L27.3415 492.68C24.1464 488.025 22.5875 482.577 22.8308 476.916" fill="#FFD700"/>
<path fill-rule="evenodd" clip-rule="evenodd" d="M1069.73 659.214C1069.92 654.725 1068.75 650.354 1066.34 646.567L671.361 25.9056C664.987 15.8955 651.769 13.0024 641.895 19.4642L30.1553 419.988C24.3605 423.788 20.7173 430.232 20.4196 437.233C20.2277 441.718 21.4016 446.087 23.8137 449.874L418.786 1070.54C425.159 1080.55 438.374 1083.44 448.25 1076.98L1059.99 676.45C1065.78 672.656 1069.42 666.213 1069.73 659.214M17.1756 437.087C17.522 429.018 21.7178 421.593 28.3958 417.224L640.134 16.6962C651.509 9.2473 666.743 12.5816 674.089 24.1219L1069.06 644.781C1071.84 649.144 1073.19 654.185 1072.97 659.357C1072.63 667.422 1068.43 674.85 1061.75 679.217L450.011 1079.74C438.636 1087.19 423.402 1083.86 416.058 1072.32L21.0779 451.667C18.3065 447.298 16.9523 442.26 17.1756 437.087" fill="#FFD700"/>
<path fill-rule="evenodd" clip-rule="evenodd" d="M1022.84 648.835C1023.02 644.783 1022.02 640.783 1019.97 637.277L659.442 22.0258C653.634 12.1235 640.968 8.85182 631.207 14.7356L24.7955 380.325C18.8003 383.937 15.0369 390.322 14.7334 397.397C14.5588 401.454 15.5551 405.451 17.6093 408.962L378.142 1024.21C383.948 1034.12 396.611 1037.39 406.37 1031.5L1012.79 665.909C1018.78 662.296 1022.54 655.914 1022.84 648.835M11.4914 397.253C11.8436 389.061 16.1939 381.673 23.1324 377.495L629.544 11.9038C640.85 5.0911 655.512 8.87964 662.227 20.3443L1022.76 635.59C1025.14 639.653 1026.29 644.279 1026.09 648.985C1025.74 657.175 1021.39 664.56 1014.45 668.746L408.031 1034.34C396.732 1041.14 382.068 1037.36 375.351 1025.9L14.8168 410.645C12.4391 406.586 11.2896 401.95 11.4914 397.253" fill="#FFD700"/>
<path fill-rule="evenodd" clip-rule="evenodd" d="M976 638.468C976.156 634.828 975.331 631.199 973.603 627.979L647.514 18.1401C642.278 8.34694 630.167 4.69818 620.509 10.0082L19.4224 340.655C13.2154 344.072 9.32598 350.388 9.0182 357.556C8.86074 361.198 9.68672 364.826 11.4103 368.048L337.504 977.887C342.74 987.679 354.851 991.329 364.508 986.018L965.595 655.365C971.804 651.951 975.693 645.638 976 638.468M5.77446 357.415C6.12661 349.205 10.7618 341.677 17.8764 337.765L618.964 7.11262C630.192 0.939145 644.282 5.18196 650.372 16.5723L976.462 626.409C978.466 630.161 979.422 634.373 979.246 638.613C978.89 646.82 974.252 654.351 967.147 658.266L366.054 988.917C354.826 995.092 340.739 990.849 334.646 979.454L8.56017 369.62C6.55463 365.867 5.59122 361.649 5.77446 357.415" fill="#FFD700"/>
<mask id="mask1_1393_2983" style="mask-type:luminance" maskUnits="userSpaceOnUse" x="0" y="0" width="933" height="946">
<path fill-rule="evenodd" clip-rule="evenodd" d="M0 0H932.461V945.821H0V0Z" fill="white"/>
</mask>
<g mask="url(#mask1_1393_2983)">
<path fill-rule="evenodd" clip-rule="evenodd" d="M929.194 628.1C929.332 624.865 928.656 621.609 927.237 618.68L635.59 14.2509C630.925 4.56988 619.36 0.544018 609.816 5.28042L14.0492 300.996C7.70331 304.145 3.57484 310.553 3.26706 317.717C3.12821 320.955 3.79958 324.213 5.21535 327.144L296.862 931.573C301.536 941.251 313.094 945.277 322.64 940.538L918.406 644.829C924.748 641.677 928.884 635.268 929.194 628.1M0.020641 317.572C0.37995 309.2 5.21129 301.712 12.6179 298.037L608.385 2.31996C619.536 -3.21142 633.052 1.48858 638.512 12.8018L930.164 617.23C931.813 620.654 932.601 624.461 932.44 628.245C932.079 636.619 927.252 644.108 919.834 647.785L324.068 943.496C312.914 949.036 299.404 944.335 293.945 933.02L2.29245 328.588C0.641916 325.171 -0.142551 321.358 0.020641 317.572" fill="#FFD700"/>
</g>
</g>
</svg>
