<svg xmlns="http://www.w3.org/2000/svg" width="32" height="32" viewBox="0 0 32 32" role="img" aria-label="ComicVerse">
  <rect x="0.5" y="0.5" width="31" height="31" rx="8" fill="#000000" stroke="rgba(88,232,193,0.28)" stroke-width="1" />
  <g transform="translate(8.25 5.5) scale(0.034)">
    <path
      fill="rgb(88, 232, 193)"
      d="M338.8-9.9c11.9 8.6 16.3 24.2 10.9 37.8L271.3 224 416 224c13.5 0 25.5 8.4 30.1 21.1s.7 26.9-9.6 35.5l-288 240c-11.3 9.4-27.4 9.9-39.3 1.3s-16.3-24.2-10.9-37.8L176.7 288 32 288c-13.5 0-25.5-8.4-30.1-21.1s-.7-26.9 9.6-35.5l288-240c11.3-9.4 27.4-9.9 39.3-1.3z"
    />
  </g>
</svg>
